<?xml version="1.0" standalone="no"?>
<!DOCTYPE svg PUBLIC "-//W3C//DTD SVG 20010904//EN"
 "http://www.w3.org/TR/2001/REC-SVG-20010904/DTD/svg10.dtd">
<svg version="1.0" xmlns="http://www.w3.org/2000/svg"
 width="203.000000pt" height="203.000000pt" viewBox="0 0 203.000000 203.000000"
 preserveAspectRatio="xMidYMid meet">
<metadata>
Created by potrace 1.11, written by Peter Selinger 2001-2013
</metadata>
<g transform="translate(0.000000,203.000000) scale(0.100000,-0.100000)"
fill="#000000" stroke="none">
<path d="M985 1909 c-49 -11 -80 -26 -95 -45 -14 -18 -14 -18 5 -3 47 38 114
47 179 24 25 -9 34 -9 27 -2 -19 19 -84 34 -116 26z"/>
<path d="M945 1866 c-43 -19 -75 -57 -89 -107 -38 -129 105 -241 227 -178 28
15 77 70 71 81 -3 4 -1 8 5 8 15 0 6 92 -14 131 -32 65 -130 97 -200 65z"/>
<path d="M707 1714 c-2 -2 -19 -5 -37 -8 -104 -13 -305 -91 -317 -123 -3 -6 7
-27 20 -45 36 -46 81 -142 101 -211 19 -65 33 -262 20 -270 -5 -3 -9 34 -10
82 -1 48 -4 100 -8 115 -6 24 -10 27 -36 21 -19 -4 -30 -3 -30 4 0 6 3 10 8
10 4 -1 18 -1 32 0 18 1 21 4 11 10 -11 7 -40 8 -48 1 -3 -3 -9 -4 -48 -14
-115 -28 -156 -40 -161 -47 -5 -8 2 -7 81 14 78 22 121 29 110 18 -6 -5 -26
-12 -45 -16 -38 -6 -64 -12 -67 -15 -2 -2 -6 -3 -10 -5 -51 -13 -63 -18 -63
-24 0 -4 16 -40 35 -79 19 -40 41 -88 50 -108 11 -27 19 -35 32 -31 57 18 63
19 63 8 0 -6 -3 -10 -7 -10 -5 1 -11 0 -15 -1 -13 -4 -27 -7 -38 -9 -24 -3 -6
-17 43 -33 30 -10 56 -18 60 -18 9 0 -14 64 -26 71 -12 8 -1 14 46 27 l37 10
-5 -31 c-13 -75 -27 -119 -71 -226 -15 -36 -15 -41 2 -67 10 -16 21 -31 24
-34 3 -3 23 -27 45 -55 81 -102 205 -212 323 -288 49 -31 185 -97 201 -97 11
0 163 70 171 79 3 3 17 12 32 20 15 8 58 38 95 68 121 96 202 179 275 283 l39
56 -25 54 c-14 30 -26 62 -26 71 0 8 -4 19 -9 25 -5 5 -12 25 -14 44 -3 19 -6
35 -7 35 -1 0 -3 8 -5 18 -3 14 1 16 16 12 11 -4 19 -2 19 5 0 6 -4 8 -10 5
-5 -3 -10 -1 -10 5 0 7 6 10 14 7 8 -3 31 -9 50 -13 20 -3 36 -10 36 -14 0 -5
-15 -4 -32 1 -42 12 -43 12 -29 -5 8 -10 8 -21 1 -40 -13 -35 -13 -40 3 -29 6
5 32 16 56 23 36 12 47 21 65 59 11 26 26 49 31 53 6 4 7 8 3 8 -3 0 9 32 28
71 19 39 34 72 32 73 -11 6 -83 28 -105 32 -15 3 -30 7 -34 9 -4 3 -24 7 -45
11 -22 3 -47 10 -57 15 -14 8 -18 5 -24 -23 -4 -18 -7 -43 -6 -55 0 -13 -4
-23 -8 -23 -8 0 -6 30 5 110 10 69 66 195 111 248 30 36 28 44 -23 76 -84 52
-222 91 -354 102 -67 5 -68 5 -68 -19 0 -25 -41 -92 -69 -114 -18 -14 -84 -35
-121 -38 -41 -3 -120 32 -151 66 -16 18 -34 50 -40 71 l-10 39 -50 -2 c-27 -2
-51 -4 -52 -5z m823 -574 c0 -16 -4 -30 -8 -30 -5 0 -7 14 -4 30 2 17 6 30 8
30 2 0 4 -13 4 -30z m6 -94 c2 -14 1 -26 -3 -26 -5 0 -9 14 -9 31 -2 35 5 33
12 -5z m154 -54 c0 -5 -7 -9 -15 -9 -8 0 -15 4 -15 9 0 4 7 8 15 8 8 0 15 -4
15 -8z m-771 -657 c25 -8 57 -18 73 -20 32 -6 126 23 195 61 26 15 44 22 38
16 -16 -17 -128 -78 -178 -97 l-45 -17 -94 46 c-51 26 -104 56 -118 67 -15 12
-3 8 30 -10 30 -17 75 -37 99 -46z"/>
<path d="M1557 1299 c6 -6 24 -13 40 -15 39 -4 70 -11 128 -28 54 -17 75 -13
29 5 -28 11 -41 14 -86 24 -120 26 -123 26 -111 14z"/>
<path d="M1790 1240 c0 -5 5 -10 10 -10 6 0 10 5 10 10 0 6 -4 10 -10 10 -5 0
-10 -4 -10 -10z"/>
<path d="M136 1130 c-38 -15 -65 -30 -60 -33 12 -7 134 42 134 54 0 5 -1 9 -2
8 -2 -1 -34 -14 -72 -29z"/>
<path d="M1800 1154 c0 -5 6 -16 13 -23 10 -11 9 -13 -5 -8 -12 4 -18 1 -18
-8 0 -8 -4 -15 -10 -15 -5 0 -10 -5 -10 -11 0 -5 -11 -35 -25 -65 -14 -30 -25
-58 -25 -63 0 -5 -12 -12 -27 -16 -16 -3 -36 -13 -45 -22 -9 -8 -21 -12 -27
-9 -5 4 -12 2 -16 -4 -3 -5 -1 -11 4 -11 14 -2 30 -6 34 -9 1 -1 16 -4 32 -6
17 -3 34 -9 40 -15 11 -11 25 -12 25 -1 0 5 -19 15 -42 22 -62 18 -67 20 -33
16 17 -2 64 -14 105 -25 41 -11 78 -21 81 -21 4 0 3 17 -1 38 -19 88 -19 112
2 123 30 16 58 47 58 65 0 8 4 13 9 9 5 -3 12 -1 15 4 4 5 -7 12 -24 16 -16 4
-32 11 -35 16 -4 5 -16 9 -29 9 -12 0 -27 5 -34 12 -7 7 -12 8 -12 2z m89 -50
c12 -11 9 -11 -22 -2 -20 6 -37 15 -37 20 0 12 41 0 59 -18z"/>
<path d="M150 1104 l-55 -25 44 -38 45 -38 -11 -69 c-7 -50 -7 -71 1 -76 8 -5
7 -8 -1 -8 -7 0 -13 -4 -13 -9 0 -6 12 -6 30 -1 17 5 31 9 33 8 1 0 22 6 47
13 25 7 47 13 50 14 68 19 90 27 90 34 0 5 -48 -6 -107 -24 -60 -18 -110 -31
-112 -29 -7 7 3 13 29 17 22 4 103 28 150 44 11 4 8 8 -10 15 -14 6 -32 13
-40 17 -8 4 -34 47 -57 94 -23 48 -46 87 -50 86 -4 0 -33 -11 -63 -25z"/>
<path d="M437 1013 c-9 -2 -15 -9 -12 -14 4 -5 13 -5 24 1 10 5 22 6 26 2 5
-4 5 -1 1 6 -7 12 -9 13 -39 5z"/>
<path d="M1773 855 c15 -9 32 -13 37 -10 6 3 10 2 10 -2 0 -5 9 -9 20 -9 11 0
20 2 20 3 0 6 -43 20 -80 27 l-35 7 28 -16z"/>
<path d="M590 366 c0 -26 24 -51 39 -42 13 8 -6 53 -25 60 -9 4 -14 -2 -14
-18z"/>
<path d="M1409 377 c-9 -7 -21 -21 -27 -32 -9 -17 -7 -21 7 -22 10 -1 24 9 31
22 16 30 10 48 -11 32z"/>
<path d="M1330 307 c-23 -36 -21 -49 5 -29 21 15 26 34 14 46 -3 3 -11 -5 -19
-17z"/>
<path d="M663 300 c3 -11 0 -23 -5 -27 -6 -3 -8 -1 -5 4 7 10 -13 23 -35 23
-15 0 33 -45 57 -54 15 -5 17 -4 8 5 -6 6 -9 18 -6 26 4 11 8 10 19 -4 13 -17
14 -17 7 2 -13 42 -51 65 -40 25z"/>
<path d="M1363 288 c-23 -11 -37 -34 -25 -42 4 -2 23 9 42 25 34 29 25 37 -17
17z"/>
<path d="M725 252 c5 -27 4 -31 -13 -27 -10 2 -25 -1 -33 -6 -12 -7 -12 -9 1
-9 8 0 28 -7 44 -15 20 -11 33 -12 40 -5 7 7 4 10 -10 10 -18 1 -18 1 -1 11 9
5 22 7 27 4 6 -3 7 1 4 9 -3 9 -9 16 -13 16 -4 0 -18 10 -30 21 l-23 22 7 -31z"/>
<path d="M1262 249 c-18 -18 -31 -34 -29 -36 6 -5 57 18 58 26 0 3 2 14 4 24
4 22 4 22 -33 -14z"/>
<path d="M800 227 c0 -19 17 -40 27 -34 5 3 15 2 21 -2 8 -5 -2 -8 -23 -9 -63
-2 -73 -17 -20 -32 35 -10 49 -10 58 -1 8 8 4 11 -18 12 l-30 1 33 9 c38 11
36 19 -13 48 -23 13 -35 16 -35 8z"/>
<path d="M1180 215 c-19 -12 -40 -20 -47 -18 -6 2 -32 -5 -57 -17 -47 -21 -62
-36 -25 -27 17 5 18 3 7 -11 -7 -9 -8 -13 -3 -10 6 4 17 3 25 -3 11 -6 6 -9
-18 -9 -21 0 -31 -4 -27 -11 7 -11 125 -9 125 3 0 8 -42 24 -72 27 -7 0 -1 9
12 18 14 9 27 20 30 24 3 5 12 4 20 -1 21 -13 33 -12 24 2 -4 7 -3 8 4 4 10
-6 50 40 41 48 -2 2 -20 -6 -39 -19z"/>
<path d="M1296 222 c-23 -5 -49 -29 -39 -35 10 -6 83 23 83 32 0 8 -15 9 -44
3z"/>
<path d="M887 192 c9 -27 24 -42 40 -42 8 0 11 5 7 13 -4 7 -3 9 2 4 5 -5 9
-14 9 -19 0 -6 6 -13 14 -16 8 -3 11 0 7 7 -4 6 -2 11 5 11 8 0 8 4 -1 15 -7
8 -18 15 -24 15 -6 0 -23 6 -38 14 -24 13 -26 12 -21 -2z"/>
<path d="M1190 170 c0 -5 -9 -10 -20 -10 -11 0 -20 -4 -20 -10 0 -13 24 -13
71 1 21 7 36 16 33 20 -7 12 -64 11 -64 -1z"/>
<path d="M882 129 c-13 -5 -21 -13 -18 -17 7 -12 98 -14 116 -2 11 7 7 10 -18
10 -20 0 -31 4 -27 10 8 12 -22 12 -53 -1z"/>
</g>
</svg>
